<svg width="20" height="20" viewBox="0 0 20 20" fill="none" xmlns="http://www.w3.org/2000/svg">
<g id="apps-add" clip-path="url(#clip0_504_6142)">
<g id="Group">
<path id="Vector" d="M3.33332 0.146973H5.83332C7.67426 0.146973 9.16664 1.61741 9.16664 3.43127V5.89451C9.16664 7.70837 7.67426 9.17881 5.83332 9.17881H3.33332C1.49238 9.17885 0 7.70841 0 5.89451V3.43127C0 1.61741 1.49238 0.146973 3.33332 0.146973Z" fill="#3A8352"/>
<path id="Vector_2" d="M3.33332 10.821H5.83332C7.67426 10.821 9.16664 12.2915 9.16664 14.1053V16.5686C9.16664 18.3824 7.67426 19.8529 5.83332 19.8529H3.33332C1.49238 19.8529 0 18.3825 0 16.5686V14.1054C0 12.2915 1.49238 10.821 3.33332 10.821Z" fill="#3A8352"/>
<path id="Vector_3" d="M14.1667 10.821H16.6667C18.5076 10.821 20 12.2915 20 14.1053V16.5686C20 18.3825 18.5076 19.8529 16.6667 19.8529H14.1667C12.3258 19.8529 10.8334 18.3825 10.8334 16.5686V14.1054C10.8333 12.2915 12.3257 10.821 14.1667 10.821Z" fill="#3A8352"/>
<path id="Vector_4" d="M11.6667 5.89445H14.1667V8.35769C14.1667 8.81115 14.5398 9.17875 15 9.17875C15.4602 9.17875 15.8333 8.81115 15.8333 8.35769V5.89445H18.3333C18.7936 5.89445 19.1667 5.52685 19.1667 5.07338C19.1667 4.61992 18.7936 4.25232 18.3333 4.25232H15.8333V1.78908C15.8333 1.33562 15.4602 0.968018 15 0.968018C14.5398 0.968018 14.1667 1.33562 14.1667 1.78908V4.25232H11.6667C11.2065 4.25232 10.8334 4.61992 10.8334 5.07338C10.8334 5.52685 11.2065 5.89445 11.6667 5.89445Z" fill="#3A8352"/>
</g>
</g>
<defs>
<clipPath id="clip0_504_6142">
<rect width="20" height="19.7059" fill="white" transform="translate(0 0.146973)"/>
</clipPath>
</defs>
</svg>
