<svg width="24" height="24" viewBox="0 0 24 24" fill="none" xmlns="http://www.w3.org/2000/svg">
<g id="business-time">
<path id="Vector" d="M19.9631 14.4434C19.6864 11.9465 17.5653 9.99777 14.9967 9.99777C8.73639 10.1594 8.25066 19.0891 14.4118 19.9581C17.5503 20.3738 20.3563 17.5836 19.9631 14.4426V14.4434ZM16.663 16.663C16.3372 16.9887 15.8106 16.9887 15.4849 16.663L14.4076 15.5857C14.251 15.4291 14.1635 15.2174 14.1635 14.9967V13.3304C14.1685 12.2406 15.8256 12.2414 15.8298 13.3304V14.6517L16.663 15.4849C16.9887 15.8106 16.9887 16.3372 16.663 16.663ZM14.9967 8.33148C16.9904 8.33148 18.7742 9.21128 19.9955 10.5985V7.49833C19.9955 5.20134 18.1268 3.33259 15.8298 3.33259H14.9125C14.5251 1.43385 12.843 0 10.8309 0H9.16463C7.15341 0 5.47045 1.43385 5.08303 3.33259H4.16574C1.86875 3.33259 0 5.20134 0 7.49833V9.99777H10.5985C11.7724 8.96384 13.3095 8.33148 14.9967 8.33148ZM9.16463 1.6663H10.8309C11.9157 1.6663 12.8321 2.36531 13.1771 3.33259H6.81931C7.16424 2.36531 8.0807 1.6663 9.16546 1.6663H9.16463ZM10.5985 19.9955H4.16574C1.86875 19.9955 0 18.1268 0 15.8298V11.6641H9.23044C7.61497 14.2543 8.28732 18.1001 10.5985 19.9955Z" fill="#3A8352"/>
</g>
</svg>
