<svg width="21" height="20" viewBox="0 0 21 20" fill="none" xmlns="http://www.w3.org/2000/svg">
<g id="dice-d6" clip-path="url(#clip0_504_6165)">
<path id="Vector" d="M2.16541 4.51175C2.44788 4.18904 2.77997 3.91199 3.14958 3.69067L8.14958 0.734787C8.79674 0.350833 9.53789 0.147949 10.2933 0.147949C11.0488 0.147949 11.7899 0.350833 12.4371 0.734787L17.4371 3.69067C17.8071 3.91176 18.1395 4.18884 18.4221 4.51175L10.2937 9.31752L2.16541 4.51175ZM11.1271 10.7388V19.7616C11.5889 19.6718 12.0319 19.5052 12.4371 19.269L17.4371 16.3131C18.0528 15.9467 18.5624 15.4302 18.9168 14.8134C19.2712 14.1966 19.4584 13.5003 19.4604 12.7915V7.20817C19.4574 6.77703 19.3849 6.34909 19.2454 5.94042L11.1271 10.7388ZM9.46041 10.7388L1.34208 5.94042C1.20262 6.34909 1.13004 6.77703 1.12708 7.20817V12.7915C1.12914 13.5001 1.31629 14.1961 1.67051 14.8128C2.02473 15.4294 2.5341 15.9458 3.14958 16.3123L8.14958 19.2682C8.55502 19.5044 8.99828 19.671 9.46041 19.7608V10.7388Z" fill="#3A8352"/>
</g>
<defs>
<clipPath id="clip0_504_6165">
<rect width="20" height="19.7059" fill="white" transform="translate(0.293701 0.146973)"/>
</clipPath>
</defs>
</svg>
