<svg width="15" height="10" viewBox="0 0 15 10" fill="none" xmlns="http://www.w3.org/2000/svg">
<g id="0f3ce7d1dd66ab8a9f34c8c528db65ae 1">
<g clip-path="url(#clip0_661_15534)">
<path id="Vector" d="M14.5 0.5H0.5V1.1925H14.5V0.5Z" fill="#B22234"/>
<path id="Vector_2" d="M14.5 1.1925H0.5V1.885H14.5V1.1925Z" fill="white"/>
<path id="Vector_3" d="M14.5 1.88501H0.5V2.57751H14.5V1.88501Z" fill="#B22234"/>
<path id="Vector_4" d="M14.5 2.57751H0.5V3.27001H14.5V2.57751Z" fill="white"/>
<path id="Vector_5" d="M14.5 3.27002H0.5V3.96252H14.5V3.27002Z" fill="#B22234"/>
<path id="Vector_6" d="M14.5 3.96252H0.5V4.65502H14.5V3.96252Z" fill="white"/>
<path id="Vector_7" d="M14.5 4.65503H0.5V5.34753H14.5V4.65503Z" fill="#B22234"/>
<path id="Vector_8" d="M14.5 5.34753H0.5V6.04003H14.5V5.34753Z" fill="white"/>
<path id="Vector_9" d="M14.5 6.04004H0.5V6.73254H14.5V6.04004Z" fill="#B22234"/>
<path id="Vector_10" d="M14.5 6.73254H0.5V7.42504H14.5V6.73254Z" fill="white"/>
<path id="Vector_11" d="M14.5 7.42505H0.5V8.11755H14.5V7.42505Z" fill="#B22234"/>
<path id="Vector_12" d="M14.5 8.11755H0.5V8.81005H14.5V8.11755Z" fill="white"/>
<path id="Vector_13" d="M7.5 0.5H0.5V5.3475H7.5V0.5Z" fill="#3C3B6E"/>
<path id="Vector_14" d="M1.24982 1.24395L1.08732 1.36145L1.14882 1.17045L0.986816 1.04945H1.18732L1.24982 0.86145L1.31232 1.04945H1.51282L1.35082 1.17045L1.41232 1.36145L1.24982 1.24395Z" fill="white"/>
<path id="Vector_15" d="M2.34991 1.24395L2.18741 1.36145L2.24891 1.17045L2.08691 1.04945H2.28741L2.34991 0.86145L2.41241 1.04945H2.61291L2.45091 1.17045L2.51241 1.36145L2.34991 1.24395Z" fill="white"/>
<path id="Vector_16" d="M3.45001 1.24395L3.28751 1.36145L3.34901 1.17045L3.18701 1.04945H3.38751L3.45001 0.86145L3.51251 1.04945H3.71301L3.55101 1.17045L3.61251 1.36145L3.45001 1.24395Z" fill="white"/>
<path id="Vector_17" d="M4.55011 1.24395L4.38761 1.36145L4.44911 1.17045L4.28711 1.04945H4.48761L4.55011 0.86145L4.61261 1.04945H4.81311L4.65111 1.17045L4.71261 1.36145L4.55011 1.24395Z" fill="white"/>
<path id="Vector_18" d="M5.65021 1.24395L5.48771 1.36145L5.54921 1.17045L5.38721 1.04945H5.58771L5.65021 0.86145L5.71271 1.04945H5.91321L5.75121 1.17045L5.81271 1.36145L5.65021 1.24395Z" fill="white"/>
<path id="Vector_19" d="M6.74982 1.24395L6.58732 1.36145L6.64882 1.17045L6.48682 1.04945H6.68732L6.74982 0.86145L6.81232 1.04945H7.01282L6.85082 1.17045L6.91232 1.36145L6.74982 1.24395Z" fill="white"/>
<path id="Vector_20" d="M1.80011 1.84845L1.63761 1.96545L1.69911 1.77495L1.53711 1.65345H1.73761L1.80011 1.46545L1.86261 1.65345H2.06311L1.90111 1.77495L1.96261 1.96545L1.80011 1.84845Z" fill="white"/>
<path id="Vector_21" d="M2.90021 1.84845L2.73771 1.96545L2.79921 1.77495L2.63721 1.65345H2.83771L2.90021 1.46545L2.96271 1.65345H3.16321L3.00121 1.77495L3.06271 1.96545L2.90021 1.84845Z" fill="white"/>
<path id="Vector_22" d="M3.99982 1.84845L3.83732 1.96545L3.89882 1.77495L3.73682 1.65345H3.93732L3.99982 1.46545L4.06232 1.65345H4.26282L4.10082 1.77495L4.16232 1.96545L3.99982 1.84845Z" fill="white"/>
<path id="Vector_23" d="M5.09991 1.84845L4.93741 1.96545L4.99891 1.77495L4.83691 1.65345H5.03741L5.09991 1.46545L5.16241 1.65345H5.36291L5.20091 1.77495L5.26241 1.96545L5.09991 1.84845Z" fill="white"/>
<path id="Vector_24" d="M6.20001 1.84845L6.03751 1.96545L6.09901 1.77495L5.93701 1.65345H6.13751L6.20001 1.46545L6.26251 1.65345H6.46301L6.30101 1.77495L6.36251 1.96545L6.20001 1.84845Z" fill="white"/>
<g id="Group">
<path id="Vector_25" d="M1.24982 2.45245L1.08732 2.56995L1.14882 2.37895L0.986816 2.25745H1.18732L1.24982 2.06995L1.31232 2.25745H1.51282L1.35082 2.37895L1.41232 2.56995L1.24982 2.45245Z" fill="white"/>
<path id="Vector_26" d="M2.34991 2.45245L2.18741 2.56995L2.24891 2.37895L2.08691 2.25745H2.28741L2.34991 2.06995L2.41241 2.25745H2.61291L2.45091 2.37895L2.51241 2.56995L2.34991 2.45245Z" fill="white"/>
<path id="Vector_27" d="M3.45001 2.45245L3.28751 2.56995L3.34901 2.37895L3.18701 2.25745H3.38751L3.45001 2.06995L3.51251 2.25745H3.71301L3.55101 2.37895L3.61251 2.56995L3.45001 2.45245Z" fill="white"/>
<path id="Vector_28" d="M4.54962 2.45245L4.38712 2.56995L4.44862 2.37895L4.28662 2.25745H4.48712L4.54962 2.06995L4.61212 2.25745H4.81262L4.65062 2.37895L4.71212 2.56995L4.54962 2.45245Z" fill="white"/>
<path id="Vector_29" d="M5.64972 2.45245L5.48722 2.56995L5.54872 2.37895L5.38672 2.25745H5.58722L5.64972 2.06995L5.71222 2.25745H5.91272L5.75072 2.37895L5.81222 2.56995L5.64972 2.45245Z" fill="white"/>
<path id="Vector_30" d="M6.74982 2.45245L6.58732 2.56995L6.64882 2.37895L6.48682 2.25745H6.68732L6.74982 2.06995L6.81232 2.25745H7.01282L6.85082 2.37895L6.91232 2.56995L6.74982 2.45245Z" fill="white"/>
</g>
<g id="Group_2">
<path id="Vector_31" d="M1.80011 3.05645L1.63761 3.17395L1.69911 2.98295L1.53711 2.86195H1.73761L1.80011 2.67395L1.86261 2.86195H2.06311L1.90111 2.98295L1.96261 3.17395L1.80011 3.05645Z" fill="white"/>
<path id="Vector_32" d="M2.90021 3.05645L2.73771 3.17395L2.79921 2.98295L2.63721 2.86195H2.83771L2.90021 2.67395L2.96271 2.86195H3.16321L3.00121 2.98295L3.06271 3.17395L2.90021 3.05645Z" fill="white"/>
<path id="Vector_33" d="M4.0003 3.05645L3.8378 3.17395L3.8993 2.98295L3.7373 2.86195H3.9378L4.0003 2.67395L4.0628 2.86195H4.2633L4.1013 2.98295L4.1628 3.17395L4.0003 3.05645Z" fill="white"/>
<path id="Vector_34" d="M5.09991 3.05645L4.93741 3.17395L4.99891 2.98295L4.83691 2.86195H5.03741L5.09991 2.67395L5.16241 2.86195H5.36291L5.20091 2.98295L5.26241 3.17395L5.09991 3.05645Z" fill="white"/>
<path id="Vector_35" d="M6.20001 3.05645L6.03751 3.17395L6.09901 2.98295L5.93701 2.86195H6.13751L6.20001 2.67395L6.26251 2.86195H6.46301L6.30101 2.98295L6.36251 3.17395L6.20001 3.05645Z" fill="white"/>
</g>
<g id="Group_3">
<path id="Vector_36" d="M1.24982 3.66095L1.08732 3.77795L1.14882 3.58745L0.986816 3.46595H1.18732L1.24982 3.27795L1.31232 3.46595H1.51282L1.35082 3.58745L1.41232 3.77795L1.24982 3.66095Z" fill="white"/>
<path id="Vector_37" d="M2.34991 3.66095L2.18741 3.77795L2.24891 3.58745L2.08691 3.46595H2.28741L2.34991 3.27795L2.41241 3.46595H2.61291L2.45091 3.58745L2.51241 3.77795L2.34991 3.66095Z" fill="white"/>
<path id="Vector_38" d="M3.45001 3.66095L3.28751 3.77795L3.34901 3.58745L3.18701 3.46595H3.38751L3.45001 3.27795L3.51251 3.46595H3.71301L3.55101 3.58745L3.61251 3.77795L3.45001 3.66095Z" fill="white"/>
<path id="Vector_39" d="M4.54962 3.66095L4.38712 3.77795L4.44862 3.58745L4.28662 3.46595H4.48712L4.54962 3.27795L4.61212 3.46595H4.81262L4.65062 3.58745L4.71212 3.77795L4.54962 3.66095Z" fill="white"/>
<path id="Vector_40" d="M5.64972 3.66095L5.48722 3.77795L5.54872 3.58745L5.38672 3.46595H5.58722L5.64972 3.27795L5.71222 3.46595H5.91272L5.75072 3.58745L5.81222 3.77795L5.64972 3.66095Z" fill="white"/>
<path id="Vector_41" d="M6.74982 3.66095L6.58732 3.77795L6.64882 3.58745L6.48682 3.46595H6.68732L6.74982 3.27795L6.81232 3.46595H7.01282L6.85082 3.58745L6.91232 3.77795L6.74982 3.66095Z" fill="white"/>
</g>
<g id="Group_4">
<path id="Vector_42" d="M1.24982 4.86895L1.08732 4.98645L1.14882 4.79545L0.986816 4.67445H1.18732L1.24982 4.48645L1.31232 4.67445H1.51282L1.35082 4.79545L1.41232 4.98645L1.24982 4.86895Z" fill="white"/>
<path id="Vector_43" d="M2.34991 4.86895L2.18741 4.98645L2.24891 4.79545L2.08691 4.67445H2.28741L2.34991 4.48645L2.41241 4.67445H2.61291L2.45091 4.79545L2.51241 4.98645L2.34991 4.86895Z" fill="white"/>
<path id="Vector_44" d="M3.45001 4.86895L3.28751 4.98645L3.34901 4.79545L3.18701 4.67445H3.38751L3.45001 4.48645L3.51251 4.67445H3.71301L3.55101 4.79545L3.61251 4.98645L3.45001 4.86895Z" fill="white"/>
<path id="Vector_45" d="M4.54962 4.86895L4.38712 4.98645L4.44862 4.79545L4.28662 4.67445H4.48712L4.54962 4.48645L4.61212 4.67445H4.81262L4.65062 4.79545L4.71212 4.98645L4.54962 4.86895Z" fill="white"/>
<path id="Vector_46" d="M5.64972 4.86895L5.48722 4.98645L5.54872 4.79545L5.38672 4.67445H5.58722L5.64972 4.48645L5.71222 4.67445H5.91272L5.75072 4.79545L5.81222 4.98645L5.64972 4.86895Z" fill="white"/>
<path id="Vector_47" d="M6.74982 4.86895L6.58732 4.98645L6.64882 4.79545L6.48682 4.67445H6.68732L6.74982 4.48645L6.81232 4.67445H7.01282L6.85082 4.79545L6.91232 4.98645L6.74982 4.86895Z" fill="white"/>
</g>
<g id="Group_5">
<path id="Vector_48" d="M1.80011 4.26495L1.63761 4.38245L1.69911 4.19145L1.53711 4.06995H1.73761L1.80011 3.88245L1.86261 4.06995H2.06311L1.90111 4.19145L1.96261 4.38245L1.80011 4.26495Z" fill="white"/>
<path id="Vector_49" d="M2.90021 4.26495L2.73771 4.38245L2.79921 4.19145L2.63721 4.06995H2.83771L2.90021 3.88245L2.96271 4.06995H3.16321L3.00121 4.19145L3.06271 4.38245L2.90021 4.26495Z" fill="white"/>
<path id="Vector_50" d="M4.0003 4.26495L3.8378 4.38245L3.8993 4.19145L3.7373 4.06995H3.9378L4.0003 3.88245L4.0628 4.06995H4.2633L4.1013 4.19145L4.1628 4.38245L4.0003 4.26495Z" fill="white"/>
<path id="Vector_51" d="M5.09991 4.26495L4.93741 4.38245L4.99891 4.19145L4.83691 4.06995H5.03741L5.09991 3.88245L5.16241 4.06995H5.36291L5.20091 4.19145L5.26241 4.38245L5.09991 4.26495Z" fill="white"/>
<path id="Vector_52" d="M6.20001 4.26495L6.03751 4.38245L6.09901 4.19145L5.93701 4.06995H6.13751L6.20001 3.88245L6.26251 4.06995H6.46301L6.30101 4.19145L6.36251 4.38245L6.20001 4.26495Z" fill="white"/>
</g>
<path id="Vector_53" d="M14.5 8.81006H0.5V9.50006H14.5V8.81006Z" fill="#B22234"/>
</g>
</g>
<defs>
<clipPath id="clip0_661_15534">
<rect width="15" height="10" rx="3" fill="white"/>
</clipPath>
</defs>
</svg>
