<svg width="24" height="24" viewBox="0 0 24 24" fill="none" xmlns="http://www.w3.org/2000/svg">
<g id="home">
<g id="Group">
<path id="Vector" d="M14 12.4875C12.6193 12.4875 11.5 13.6068 11.5 14.9875V19.9875H16.5V14.9875C16.5 13.6068 15.3807 12.4875 14 12.4875Z" fill="#3A8352"/>
<g id="Group_2">
<path id="Vector_2" d="M18.1667 14.9875V19.9875H21.5C22.8807 19.9875 24 18.8682 24 17.4875V9.88673C24.0002 9.4538 23.832 9.03778 23.5308 8.72673L16.4492 1.07087C15.1996 -0.281086 13.0907 -0.364094 11.7388 0.885437C11.6746 0.944812 11.6127 1.00665 11.5534 1.07087L4.48418 8.72423C4.17395 9.03657 3.99988 9.45899 4 9.89923V17.4875C4 18.8682 5.1193 19.9875 6.5 19.9875H9.83332V14.9875C9.84891 12.7152 11.6836 10.8596 13.8987 10.8061C16.1879 10.7509 18.1492 12.6381 18.1667 14.9875Z" fill="#3A8352"/>
<path id="Vector_3" d="M14 12.4875C12.6193 12.4875 11.5 13.6068 11.5 14.9875V19.9875H16.5V14.9875C16.5 13.6068 15.3807 12.4875 14 12.4875Z" fill="#3A8352"/>
</g>
</g>
</g>
</svg>
