<svg width="21" height="20" viewBox="0 0 21 20" fill="none" xmlns="http://www.w3.org/2000/svg">
<g id="rent" clip-path="url(#clip0_504_6160)">
<path id="Vector" d="M19.317 8.26167L16.4504 5.395C15.9454 2.31167 13.297 0 10.0854 0C7.0487 0 4.43453 2.11833 3.78453 5.06167C1.6712 5.4375 0.293701 7.09917 0.293701 9.15417C0.293701 10.8625 1.32203 12.3308 2.7937 12.9742V13.75L3.52703 14.4833C3.70703 14.6633 3.70703 14.955 3.52703 15.135L2.9287 15.7333C2.7487 15.9133 2.7487 16.205 2.9287 16.385L3.52703 16.9833C3.70703 17.1633 3.70703 17.455 3.52703 17.635L2.9287 18.2333C2.7487 18.4133 2.7487 18.705 2.9287 18.885L3.74537 19.7017C4.14037 20.0967 4.78203 20.0967 5.17703 19.7017L5.76287 19.1158C5.9962 18.8825 6.12703 18.5658 6.12703 18.2358V12.9758C7.5987 12.3325 8.62703 10.865 8.62703 9.15583C8.62703 7.215 7.2937 5.59917 5.49703 5.13667C6.0812 3.10583 7.9337 1.66833 10.0854 1.66833C12.4345 1.66833 14.3779 3.33667 14.7912 5.57583L12.1037 8.26333C11.4829 8.88333 11.127 9.7425 11.127 10.62V16.6683C11.127 18.5067 12.622 20.0017 14.4604 20.0017H16.9604C18.7987 20.0017 20.2937 18.5067 20.2937 16.6683V10.62C20.2937 9.7425 19.9379 8.88333 19.317 8.26333V8.26167ZM4.46037 9.155C3.77037 9.155 3.21037 8.595 3.21037 7.905C3.21037 7.215 3.77037 6.655 4.46037 6.655C5.15037 6.655 5.71037 7.215 5.71037 7.905C5.71037 8.595 5.15037 9.155 4.46037 9.155Z" fill="#3A8352"/>
</g>
<defs>
<clipPath id="clip0_504_6160">
<rect width="20" height="20" fill="white" transform="translate(0.293701)"/>
</clipPath>
</defs>
</svg>
