<svg width="21" height="20" viewBox="0 0 21 20" fill="none" xmlns="http://www.w3.org/2000/svg">
<g id="sack-dollar" clip-path="url(#clip0_504_6170)">
<path id="Vector" d="M11.1712 4.31723C11.9804 3.57087 13.1246 2.37949 13.5829 1.24311C13.7954 0.716801 13.3687 0.146973 12.7937 0.146973H7.79374C7.21874 0.146973 6.79208 0.71598 7.00458 1.24311C7.46291 2.37949 8.60708 3.57087 9.41624 4.31723C4.93458 4.97327 1.12708 10.5073 1.12708 14.9264C1.12708 17.6433 3.36958 19.8529 6.12708 19.8529H14.4604C17.2179 19.8529 19.4604 17.6433 19.4604 14.9264C19.4604 10.5073 15.6529 4.97327 11.1712 4.31723ZM9.16374 11.4458L11.6987 11.8621C12.8162 12.0452 13.6279 12.9895 13.6279 14.1061C13.6279 15.4642 12.5062 16.5694 11.1279 16.5694V17.3904C11.1279 17.8437 10.7546 18.2115 10.2946 18.2115C9.83458 18.2115 9.46124 17.8437 9.46124 17.3904V16.5694H9.23791C8.34791 16.5694 7.51874 16.0981 7.07291 15.3386C6.84291 14.9461 6.97874 14.4444 7.37708 14.217C7.77374 13.9895 8.28458 14.1234 8.51541 14.5167C8.66374 14.7696 8.94124 14.9272 9.23791 14.9272H11.1279C11.5871 14.9272 11.9612 14.5585 11.9612 14.1061C11.9612 13.7958 11.7354 13.533 11.4246 13.4821L8.88958 13.0658C7.77208 12.8827 6.96041 11.9385 6.96041 10.8218C6.96041 9.46375 8.08208 8.35858 9.46041 8.35858V7.5375C9.46041 7.08427 9.83374 6.71642 10.2937 6.71642C10.7537 6.71642 11.1271 7.08427 11.1271 7.5375V8.35858H11.3504C12.2396 8.35858 13.0696 8.8307 13.5154 9.5902C13.7454 9.98267 13.6096 10.4844 13.2112 10.7118C12.8137 10.9392 12.3037 10.8054 12.0729 10.4121C11.9237 10.1584 11.6471 10.0016 11.3504 10.0016H9.46041C9.00124 10.0016 8.62708 10.3702 8.62708 10.8226C8.62708 11.133 8.85291 11.3957 9.16374 11.4467V11.4458Z" fill="#3A8352"/>
</g>
<defs>
<clipPath id="clip0_504_6170">
<rect width="20" height="19.7059" fill="white" transform="translate(0.293701 0.146973)"/>
</clipPath>
</defs>
</svg>
