<svg width="29" height="29" viewBox="0 0 29 29" fill="none" xmlns="http://www.w3.org/2000/svg">
<g id="3c866b78e1da574d7c860c47d27b5ecf 1">
<path id="Vector" d="M26.5831 15.3432C26.5813 17.119 26.5678 18.6283 26.4669 19.8667C26.3498 21.3039 26.1098 22.5048 25.5727 23.5021C25.3359 23.942 25.0448 24.336 24.6904 24.6904C23.6846 25.6961 22.4031 26.1518 20.7792 26.3701C19.1926 26.5834 17.1592 26.5834 14.5645 26.5834H14.4355C11.8408 26.5834 9.80741 26.5834 8.22086 26.3701C6.59693 26.1518 5.3155 25.6961 4.30971 24.6904C3.41805 23.7986 2.95757 22.6889 2.7127 21.3121C2.47216 19.9598 2.42815 18.2772 2.41901 16.1877C2.41669 15.6563 2.41669 15.0942 2.41669 14.5011V14.4355C2.41668 11.8408 2.41666 9.80743 2.62997 8.22087C2.8483 6.59694 3.30392 5.31552 4.30971 4.30973C5.3155 3.30393 6.59693 2.84832 8.22086 2.62999C9.63178 2.44029 11.4471 2.4193 13.6566 2.41699C14.1222 2.4165 14.5 2.79414 14.5 3.25972C14.5 3.72532 14.1221 4.10257 13.6565 4.10306C11.4157 4.10543 9.74826 4.12584 8.44551 4.30099C7.00855 4.49419 6.14223 4.86163 5.50192 5.50194C4.86162 6.14225 4.49417 7.00856 4.30097 8.44553C4.10452 9.90675 4.10274 11.8268 4.10274 14.5C4.10274 14.8265 4.10274 15.1421 4.10312 15.4479L5.22843 14.4633C6.25272 13.567 7.79649 13.6184 8.75889 14.5808L13.5807 19.4026C14.3532 20.1751 15.5692 20.2803 16.463 19.6523L16.7982 19.4166C18.0843 18.5128 19.8244 18.6176 20.9929 19.6692L24.1744 22.5326C24.4946 21.86 24.6848 20.9763 24.7863 19.7298C24.882 18.5553 24.8952 17.1288 24.897 15.3433C24.8975 14.8778 25.2747 14.5 25.7403 14.5C26.2059 14.5 26.5836 14.8776 26.5831 15.3432Z" fill="url(#paint0_linear_734_3758)"/>
<path id="Vector_2" fill-rule="evenodd" clip-rule="evenodd" d="M21.1458 13.2917C18.5826 13.2917 17.3009 13.2917 16.5046 12.4955C15.7083 11.6991 15.7083 10.4175 15.7083 7.85425C15.7083 5.29099 15.7083 4.00936 16.5046 3.21305C17.3009 2.41675 18.5826 2.41675 21.1458 2.41675C23.7091 2.41675 24.9907 2.41675 25.787 3.21305C26.5833 4.00936 26.5833 5.29099 26.5833 7.85425C26.5833 10.4175 26.5833 11.6991 25.787 12.4955C24.9907 13.2917 23.7091 13.2917 21.1458 13.2917ZM22.0521 5.43758C22.0521 4.93708 21.6463 4.53133 21.1458 4.53133C20.6453 4.53133 20.2396 4.93708 20.2396 5.43758V6.948H18.7291C18.2287 6.948 17.8229 7.35374 17.8229 7.85425C17.8229 8.35475 18.2287 8.7605 18.7291 8.7605H20.2396V10.2709C20.2396 10.7714 20.6453 11.1772 21.1458 11.1772C21.6463 11.1772 22.0521 10.7714 22.0521 10.2709V8.7605H23.5625C24.063 8.7605 24.4687 8.35475 24.4687 7.85425C24.4687 7.35374 24.063 6.948 23.5625 6.948H22.0521V5.43758Z" fill="url(#paint1_linear_734_3758)"/>
</g>
<defs>
<linearGradient id="paint0_linear_734_3758" x1="14.5" y1="2.4167" x2="14.5" y2="26.5834" gradientUnits="userSpaceOnUse">
<stop stop-color="#3A8352"/>
<stop offset="1" stop-color="#3A8352"/>
</linearGradient>
<linearGradient id="paint1_linear_734_3758" x1="14.5" y1="2.41675" x2="14.5" y2="26.5834" gradientUnits="userSpaceOnUse">
<stop stop-color="#3A8352"/>
<stop offset="1" stop-color="#3A8352"/>
</linearGradient>
</defs>
</svg>
