<svg width="21" height="20" viewBox="0 0 21 20" fill="none" xmlns="http://www.w3.org/2000/svg">
<g id="user-gear 1" clip-path="url(#clip0_504_6151)">
<path id="Vector" d="M7.7937 10C5.0362 10 2.7937 7.7575 2.7937 5C2.7937 2.2425 5.0362 0 7.7937 0C10.5512 0 12.7937 2.2425 12.7937 5C12.7937 7.7575 10.5512 10 7.7937 10ZM19.207 15.945L18.3954 15.4767C18.5337 15.0625 18.627 14.6275 18.627 14.1667C18.627 13.7058 18.5345 13.2708 18.3954 12.8567L19.207 12.3883C19.6054 12.1583 19.742 11.6483 19.512 11.25C19.2812 10.8508 18.7729 10.7133 18.3737 10.945L17.5629 11.4133C16.9754 10.7517 16.1929 10.2675 15.2937 10.085V9.1675C15.2937 8.7075 14.9204 8.33417 14.4604 8.33417C14.0004 8.33417 13.627 8.7075 13.627 9.1675V10.085C12.7279 10.2683 11.9454 10.7525 11.3579 11.4133L10.547 10.945C10.147 10.7142 9.6387 10.8508 9.4087 11.25C9.1787 11.6492 9.31537 12.1583 9.7137 12.3883L10.5254 12.8567C10.387 13.2708 10.2937 13.7058 10.2937 14.1667C10.2937 14.6275 10.3862 15.0625 10.5254 15.4767L9.7137 15.945C9.31537 16.175 9.1787 16.685 9.4087 17.0833C9.5637 17.3508 9.84287 17.5 10.1312 17.5C10.272 17.5 10.4154 17.4642 10.547 17.3883L11.3579 16.92C11.9454 17.5817 12.7279 18.0658 13.627 18.2483V19.1658C13.627 19.6258 14.0004 19.9992 14.4604 19.9992C14.9204 19.9992 15.2937 19.6258 15.2937 19.1658V18.2483C16.1929 18.065 16.9754 17.5808 17.5629 16.92L18.3737 17.3883C18.5054 17.4642 18.6487 17.5 18.7895 17.5C19.0779 17.5 19.3579 17.3508 19.512 17.0833C19.742 16.6842 19.6054 16.175 19.207 15.945ZM14.4604 15.4167C13.7712 15.4167 13.2104 14.8558 13.2104 14.1667C13.2104 13.4775 13.7712 12.9167 14.4604 12.9167C15.1495 12.9167 15.7104 13.4775 15.7104 14.1667C15.7104 14.8558 15.1495 15.4167 14.4604 15.4167ZM6.96037 14.1667C6.96037 13.2967 7.1162 12.4642 7.3887 11.6875C3.44203 11.8992 0.293701 15.1683 0.293701 19.1667C0.293701 19.6267 0.667035 20 1.12703 20H9.7512C8.05037 18.625 6.96037 16.5242 6.96037 14.1667Z" fill="#3A8352"/>
</g>
<defs>
<clipPath id="clip0_504_6151">
<rect width="20" height="20" fill="white" transform="translate(0.293701)"/>
</clipPath>
</defs>
</svg>
