<svg width="12" height="14" viewBox="0 0 12 14" fill="none" xmlns="http://www.w3.org/2000/svg">
<g id="User">
<g id="Group">
<path id="Vector" d="M0.75 12.9998V12.2498C0.75 11.5603 0.885795 10.8776 1.14963 10.2407C1.41347 9.60371 1.80018 9.02495 2.28769 8.53745C2.7752 8.04994 3.35395 7.66323 3.99091 7.39939C4.62787 7.13555 5.31056 6.99976 6 6.99976C6.68944 6.99976 7.37213 7.13555 8.00909 7.39939C8.64605 7.66323 9.2248 8.04994 9.71231 8.53745C10.1998 9.02495 10.5865 9.60371 10.8504 10.2407C11.1142 10.8776 11.25 11.5603 11.25 12.2498V12.9998" stroke="#9291A5" stroke-width="1.5" stroke-linecap="round" stroke-linejoin="round"/>
<path id="Vector_2" d="M6 7C6.79565 7 7.55871 6.68393 8.12132 6.12132C8.68393 5.55871 9 4.79565 9 4C9 3.20435 8.68393 2.44129 8.12132 1.87868C7.55871 1.31607 6.79565 1 6 1C5.20435 1 4.44129 1.31607 3.87868 1.87868C3.31607 2.44129 3 3.20435 3 4C3 4.79565 3.31607 5.55871 3.87868 6.12132C4.44129 6.68393 5.20435 7 6 7V7Z" stroke="#9291A5" stroke-width="1.5" stroke-linecap="round" stroke-linejoin="round"/>
</g>
</g>
</svg>
