<svg width="21" height="20" viewBox="0 0 21 20" fill="none" xmlns="http://www.w3.org/2000/svg">
<path id="Vector" d="M6.5437 10.8333C5.80202 10.8333 5.077 10.6134 4.46031 10.2013C3.84363 9.78929 3.36298 9.20362 3.07915 8.5184C2.79532 7.83318 2.72106 7.07918 2.86576 6.35175C3.01045 5.62432 3.3676 4.95613 3.89205 4.43168C4.4165 3.90724 5.08468 3.55008 5.81211 3.40539C6.53954 3.2607 7.29354 3.33496 7.97876 3.61879C8.66399 3.90262 9.24966 4.38326 9.66171 4.99995C10.0738 5.61663 10.2937 6.34166 10.2937 7.08334C10.2926 8.07756 9.89716 9.03075 9.19413 9.73377C8.49111 10.4368 7.53792 10.8322 6.5437 10.8333ZM11.9604 20H1.12703C0.906021 20 0.694059 19.9122 0.537779 19.7559C0.381499 19.5996 0.293701 19.3877 0.293701 19.1667V18.75C0.293701 17.0924 0.952181 15.5027 2.12428 14.3306C3.29639 13.1585 4.8861 12.5 6.5437 12.5C8.2013 12.5 9.79102 13.1585 10.9631 14.3306C12.1352 15.5027 12.7937 17.0924 12.7937 18.75V19.1667C12.7937 19.3877 12.7059 19.5996 12.5496 19.7559C12.3933 19.9122 12.1814 20 11.9604 20ZM14.877 7.5C14.1354 7.5 13.4103 7.28007 12.7936 6.86801C12.177 6.45596 11.6963 5.87029 11.4125 5.18506C11.1287 4.49984 11.0544 3.74584 11.1991 3.01841C11.3438 2.29098 11.7009 1.6228 12.2254 1.09835C12.7498 0.573904 13.418 0.216751 14.1454 0.0720569C14.8729 -0.0726377 15.6269 0.00162482 16.3121 0.285453C16.9973 0.569282 17.583 1.04993 17.995 1.66661C18.4071 2.2833 18.627 3.00832 18.627 3.75C18.6259 4.74423 18.2305 5.69741 17.5275 6.40043C16.8244 7.10346 15.8713 7.4989 14.877 7.5ZM13.6929 9.18417C12.9167 9.2883 12.1704 9.55159 11.5008 9.95754C10.8311 10.3635 10.2525 10.9034 9.8012 11.5433C11.6686 12.3914 13.1359 13.9285 13.8962 15.8333H19.4604C19.6814 15.8333 19.8933 15.7455 20.0496 15.5893C20.2059 15.433 20.2937 15.221 20.2937 15V14.9683C20.2928 14.1377 20.1148 13.3168 19.7714 12.5604C19.4281 11.804 18.9273 11.1296 18.3025 10.5821C17.6778 10.0347 16.9435 9.62681 16.1486 9.38574C15.3536 9.14467 14.5165 9.07595 13.6929 9.18417Z" fill="#3A8352"/>
</svg>
